<mxfile host="65bd71144e">
    <diagram id="BWXc0xiUh7XH1yX5u20s" name="Page-1">
        <mxGraphModel dx="1297" dy="744" grid="1" gridSize="10" guides="1" tooltips="1" connect="1" arrows="1" fold="1" page="1" pageScale="1" pageWidth="827" pageHeight="1169" math="0" shadow="0">
            <root>
                <mxCell id="0"/>
                <mxCell id="1" parent="0"/>
                <mxCell id="2" value="Consumer" style="shape=umlLifeline;perimeter=lifelinePerimeter;container=1;collapsible=0;recursiveResize=0;rounded=0;shadow=0;strokeWidth=1;" parent="1" vertex="1">
                    <mxGeometry x="95" y="80" width="100" height="750" as="geometry"/>
                </mxCell>
                <mxCell id="3" value="" style="points=[];perimeter=orthogonalPerimeter;rounded=0;shadow=0;strokeWidth=1;" parent="2" vertex="1">
                    <mxGeometry x="45" y="70" width="10" height="660" as="geometry"/>
                </mxCell>
                <mxCell id="4" value="Frontend" style="shape=umlLifeline;perimeter=lifelinePerimeter;container=1;collapsible=0;recursiveResize=0;rounded=0;shadow=0;strokeWidth=1;" parent="1" vertex="1">
                    <mxGeometry x="275" y="80" width="100" height="750" as="geometry"/>
                </mxCell>
                <mxCell id="5" value="" style="points=[];perimeter=orthogonalPerimeter;rounded=0;shadow=0;strokeWidth=1;" parent="4" vertex="1">
                    <mxGeometry x="45" y="70" width="10" height="660" as="geometry"/>
                </mxCell>
                <mxCell id="6" value="1. Explore Marketplace" style="verticalAlign=bottom;endArrow=block;entryX=0;entryY=0;shadow=0;strokeWidth=1;" parent="1" source="3" target="5" edge="1">
                    <mxGeometry relative="1" as="geometry">
                        <mxPoint x="250" y="160" as="sourcePoint"/>
                    </mxGeometry>
                </mxCell>
                <mxCell id="7" value="2. Fetch NFT's" style="verticalAlign=bottom;endArrow=block;shadow=0;strokeWidth=1;" parent="1" source="5" target="11" edge="1">
                    <mxGeometry x="-0.4993" relative="1" as="geometry">
                        <mxPoint x="215" y="200" as="sourcePoint"/>
                        <mxPoint x="670" y="180" as="targetPoint"/>
                        <Array as="points">
                            <mxPoint x="590" y="180"/>
                        </Array>
                        <mxPoint as="offset"/>
                    </mxGeometry>
                </mxCell>
                <mxCell id="8" value="IPFS" style="shape=umlLifeline;perimeter=lifelinePerimeter;container=1;collapsible=0;recursiveResize=0;rounded=0;shadow=0;strokeWidth=1;" parent="1" vertex="1">
                    <mxGeometry x="460" y="80" width="100" height="750" as="geometry"/>
                </mxCell>
                <mxCell id="9" value="" style="points=[];perimeter=orthogonalPerimeter;rounded=0;shadow=0;strokeWidth=1;" parent="8" vertex="1">
                    <mxGeometry x="45" y="70" width="10" height="660" as="geometry"/>
                </mxCell>
                <mxCell id="10" value="Smart Contract" style="shape=umlLifeline;perimeter=lifelinePerimeter;container=1;collapsible=0;recursiveResize=0;rounded=0;shadow=0;strokeWidth=1;" parent="1" vertex="1">
                    <mxGeometry x="640" y="80" width="100" height="750" as="geometry"/>
                </mxCell>
                <mxCell id="11" value="" style="points=[];perimeter=orthogonalPerimeter;rounded=0;shadow=0;strokeWidth=1;" parent="10" vertex="1">
                    <mxGeometry x="45" y="70" width="10" height="660" as="geometry"/>
                </mxCell>
                <mxCell id="13" value="3. Ok" style="verticalAlign=bottom;endArrow=none;shadow=0;strokeWidth=1;startArrow=block;startFill=1;endFill=0;" parent="1" target="11" edge="1" source="5">
                    <mxGeometry x="-0.4993" relative="1" as="geometry">
                        <mxPoint x="330.25" y="220" as="sourcePoint"/>
                        <mxPoint x="660" y="220" as="targetPoint"/>
                        <Array as="points">
                            <mxPoint x="490" y="210"/>
                            <mxPoint x="590" y="210"/>
                        </Array>
                        <mxPoint as="offset"/>
                    </mxGeometry>
                </mxCell>
                <mxCell id="14" value="4. Fetch Metadata" style="verticalAlign=bottom;endArrow=block;endSize=8;shadow=0;strokeWidth=1;endFill=1;" parent="1" source="5" target="9" edge="1">
                    <mxGeometry x="0.0286" relative="1" as="geometry">
                        <mxPoint x="499" y="260" as="targetPoint"/>
                        <mxPoint x="400" y="259" as="sourcePoint"/>
                        <Array as="points">
                            <mxPoint x="370" y="240"/>
                            <mxPoint x="420" y="240"/>
                            <mxPoint x="440" y="240"/>
                            <mxPoint x="480" y="240"/>
                        </Array>
                        <mxPoint as="offset"/>
                    </mxGeometry>
                </mxCell>
                <mxCell id="21" value="6. Ok" style="verticalAlign=bottom;endArrow=block;shadow=0;strokeWidth=1;exitX=0;exitY=0.214;exitDx=0;exitDy=0;exitPerimeter=0;" parent="1" edge="1">
                    <mxGeometry relative="1" as="geometry">
                        <mxPoint x="320" y="300" as="sourcePoint"/>
                        <mxPoint x="150" y="300" as="targetPoint"/>
                    </mxGeometry>
                </mxCell>
                <mxCell id="22" value="5. Ok" style="verticalAlign=bottom;endArrow=none;shadow=0;strokeWidth=1;startArrow=block;startFill=1;endFill=0;" parent="1" target="9" edge="1" source="5">
                    <mxGeometry x="0.0272" relative="1" as="geometry">
                        <mxPoint x="330.25" y="300" as="sourcePoint"/>
                        <mxPoint x="490" y="300" as="targetPoint"/>
                        <Array as="points">
                            <mxPoint x="380" y="270"/>
                            <mxPoint x="440" y="270"/>
                            <mxPoint x="470" y="270"/>
                        </Array>
                        <mxPoint as="offset"/>
                    </mxGeometry>
                </mxCell>
                <mxCell id="23" value="7. Search Datasets" style="verticalAlign=bottom;endArrow=block;entryX=0;entryY=0;shadow=0;strokeWidth=1;" parent="1" edge="1">
                    <mxGeometry relative="1" as="geometry">
                        <mxPoint x="150" y="330.00000000000034" as="sourcePoint"/>
                        <mxPoint x="320" y="330.00000000000034" as="targetPoint"/>
                    </mxGeometry>
                </mxCell>
                <mxCell id="24" value="8. Ok" style="verticalAlign=bottom;endArrow=none;entryX=0;entryY=0;shadow=0;strokeWidth=1;startArrow=block;startFill=1;endFill=0;" parent="1" edge="1">
                    <mxGeometry relative="1" as="geometry">
                        <mxPoint x="150" y="360.00000000000034" as="sourcePoint"/>
                        <mxPoint x="320" y="360.00000000000034" as="targetPoint"/>
                    </mxGeometry>
                </mxCell>
                <mxCell id="25" value="9. Filter Datasets" style="verticalAlign=bottom;endArrow=block;entryX=0;entryY=0;shadow=0;strokeWidth=1;" parent="1" edge="1">
                    <mxGeometry relative="1" as="geometry">
                        <mxPoint x="150" y="390.00000000000034" as="sourcePoint"/>
                        <mxPoint x="320" y="390.00000000000034" as="targetPoint"/>
                    </mxGeometry>
                </mxCell>
                <mxCell id="26" value="10. Ok" style="verticalAlign=bottom;endArrow=none;entryX=0;entryY=0;shadow=0;strokeWidth=1;startArrow=block;startFill=1;endFill=0;" parent="1" edge="1">
                    <mxGeometry relative="1" as="geometry">
                        <mxPoint x="150" y="420.00000000000045" as="sourcePoint"/>
                        <mxPoint x="320" y="420.00000000000045" as="targetPoint"/>
                    </mxGeometry>
                </mxCell>
                <mxCell id="27" value="11. Buy Dataset" style="verticalAlign=bottom;endArrow=block;entryX=0;entryY=0;shadow=0;strokeWidth=1;startArrow=none;startFill=0;endFill=1;" parent="1" edge="1">
                    <mxGeometry relative="1" as="geometry">
                        <mxPoint x="150" y="450.00000000000045" as="sourcePoint"/>
                        <mxPoint x="320" y="450.00000000000045" as="targetPoint"/>
                    </mxGeometry>
                </mxCell>
                <mxCell id="28" value="12. Buy (price, token_id)" style="verticalAlign=bottom;endArrow=block;shadow=0;strokeWidth=1;startArrow=none;startFill=0;endFill=1;" parent="1" target="11" edge="1" source="5">
                    <mxGeometry x="-0.493" relative="1" as="geometry">
                        <mxPoint x="330" y="580" as="sourcePoint"/>
                        <mxPoint x="504.75" y="580" as="targetPoint"/>
                        <Array as="points">
                            <mxPoint x="380" y="480"/>
                            <mxPoint x="470" y="480"/>
                        </Array>
                        <mxPoint as="offset"/>
                    </mxGeometry>
                </mxCell>
                <mxCell id="29" value="13. Ok" style="verticalAlign=bottom;endArrow=none;shadow=0;strokeWidth=1;startArrow=block;startFill=1;endFill=0;" parent="1" target="11" edge="1" source="5">
                    <mxGeometry x="-0.4993" relative="1" as="geometry">
                        <mxPoint x="340" y="510" as="sourcePoint"/>
                        <mxPoint x="670" y="620" as="targetPoint"/>
                        <Array as="points">
                            <mxPoint x="480" y="510"/>
                        </Array>
                        <mxPoint as="offset"/>
                    </mxGeometry>
                </mxCell>
                <mxCell id="30" value="14. Download Dataset" style="verticalAlign=bottom;endArrow=block;endSize=8;shadow=0;strokeWidth=1;endFill=1;" parent="1" edge="1">
                    <mxGeometry relative="1" as="geometry">
                        <mxPoint x="505" y="540" as="targetPoint"/>
                        <mxPoint x="330" y="540" as="sourcePoint"/>
                        <Array as="points">
                            <mxPoint x="440" y="540"/>
                            <mxPoint x="480" y="540"/>
                        </Array>
                    </mxGeometry>
                </mxCell>
                <mxCell id="31" value="15. Ok" style="verticalAlign=bottom;endArrow=none;shadow=0;strokeWidth=1;startArrow=block;startFill=1;endFill=0;" parent="1" target="9" edge="1" source="5">
                    <mxGeometry relative="1" as="geometry">
                        <mxPoint x="330" y="700.0000000000005" as="sourcePoint"/>
                        <mxPoint x="500" y="700.0000000000005" as="targetPoint"/>
                        <Array as="points">
                            <mxPoint x="370" y="570"/>
                        </Array>
                    </mxGeometry>
                </mxCell>
                <mxCell id="32" value="16. Ok" style="verticalAlign=bottom;endArrow=none;entryX=0;entryY=0;shadow=0;strokeWidth=1;startArrow=block;startFill=1;endFill=0;" parent="1" edge="1">
                    <mxGeometry relative="1" as="geometry">
                        <mxPoint x="150" y="600.0000000000005" as="sourcePoint"/>
                        <mxPoint x="320" y="600.0000000000005" as="targetPoint"/>
                    </mxGeometry>
                </mxCell>
                <mxCell id="33" value="19. Rate Dataset/Provider" style="verticalAlign=bottom;endArrow=block;entryX=0;entryY=0;shadow=0;strokeWidth=1;startArrow=none;startFill=0;endFill=1;" parent="1" edge="1">
                    <mxGeometry relative="1" as="geometry">
                        <mxPoint x="150" y="690.0000000000005" as="sourcePoint"/>
                        <mxPoint x="320" y="690.0000000000005" as="targetPoint"/>
                    </mxGeometry>
                </mxCell>
                <mxCell id="34" value="20. Rate (int amount)" style="verticalAlign=bottom;endArrow=block;shadow=0;strokeWidth=1;startArrow=none;startFill=0;endFill=1;" parent="1" edge="1">
                    <mxGeometry x="-0.493" relative="1" as="geometry">
                        <mxPoint x="330" y="720" as="sourcePoint"/>
                        <mxPoint x="685" y="720" as="targetPoint"/>
                        <Array as="points">
                            <mxPoint x="400" y="720"/>
                        </Array>
                        <mxPoint as="offset"/>
                    </mxGeometry>
                </mxCell>
                <mxCell id="35" value="21. Ok" style="verticalAlign=bottom;endArrow=none;shadow=0;strokeWidth=1;startArrow=block;startFill=1;endFill=0;" parent="1" edge="1">
                    <mxGeometry x="-0.4993" relative="1" as="geometry">
                        <mxPoint x="330" y="750" as="sourcePoint"/>
                        <mxPoint x="685" y="750" as="targetPoint"/>
                        <Array as="points">
                            <mxPoint x="480" y="750"/>
                            <mxPoint x="600" y="750"/>
                        </Array>
                        <mxPoint as="offset"/>
                    </mxGeometry>
                </mxCell>
                <mxCell id="36" value="22. Ok" style="verticalAlign=bottom;endArrow=none;entryX=0;entryY=0;shadow=0;strokeWidth=1;startArrow=block;startFill=1;endFill=0;" parent="1" edge="1">
                    <mxGeometry relative="1" as="geometry">
                        <mxPoint x="150" y="780.0000000000005" as="sourcePoint"/>
                        <mxPoint x="320" y="780.0000000000005" as="targetPoint"/>
                    </mxGeometry>
                </mxCell>
                <mxCell id="37" value="17. Verify Signature, Validate" style="verticalAlign=bottom;endArrow=block;entryX=0;entryY=0;shadow=0;strokeWidth=1;startArrow=none;startFill=0;endFill=1;" edge="1" parent="1">
                    <mxGeometry relative="1" as="geometry">
                        <mxPoint x="150" y="630.0000000000005" as="sourcePoint"/>
                        <mxPoint x="320" y="630.0000000000005" as="targetPoint"/>
                    </mxGeometry>
                </mxCell>
                <mxCell id="38" value="18. Ok" style="verticalAlign=bottom;endArrow=none;entryX=0;entryY=0;shadow=0;strokeWidth=1;startArrow=block;startFill=1;endFill=0;" edge="1" parent="1">
                    <mxGeometry relative="1" as="geometry">
                        <mxPoint x="150" y="660.0000000000005" as="sourcePoint"/>
                        <mxPoint x="320" y="660.0000000000005" as="targetPoint"/>
                    </mxGeometry>
                </mxCell>
            </root>
        </mxGraphModel>
    </diagram>
</mxfile>